<svg xmlns="http://www.w3.org/2000/svg" xmlns:xlink="http://www.w3.org/1999/xlink" width="2000" zoomAndPan="magnify" viewBox="0 0 1500 1499.999933" height="2000" preserveAspectRatio="xMidYMid meet" version="1.0"><defs><clipPath id="74904d70b8"><path d="M 30.691406 510 L 990 510 L 990 1469.191406 L 30.691406 1469.191406 Z M 30.691406 510 " clip-rule="nonzero"/></clipPath><clipPath id="c3e3da8cb7"><path d="M 510 30.691406 L 1469.191406 30.691406 L 1469.191406 990 L 510 990 Z M 510 30.691406 " clip-rule="nonzero"/></clipPath></defs><path fill="#001842" d="M 510.078125 510.078125 L 989.464844 510.078125 L 989.464844 989.464844 L 510.078125 989.464844 Z M 510.078125 510.078125 " fill-opacity="1" fill-rule="evenodd"/><g clip-path="url(#74904d70b8)"><path fill="#00daf2" d="M 30.691406 989.804688 L 30.691406 510.078125 L 510.078125 510.078125 L 510.078125 989.804688 L 989.804688 989.804688 L 989.804688 1469.191406 L 510.078125 1469.191406 L 510.078125 989.804688 Z M 30.691406 989.804688 " fill-opacity="1" fill-rule="evenodd"/></g><g clip-path="url(#c3e3da8cb7)"><path fill="#0a6cff" d="M 510.078125 510.078125 L 510.078125 30.691406 L 1469.191406 30.691406 L 1469.191406 989.804688 L 989.804688 989.804688 L 989.804688 510.078125 Z M 510.078125 510.078125 " fill-opacity="1" fill-rule="evenodd"/></g></svg>